<?xml version="1.0" standalone="no"?>
<!DOCTYPE svg PUBLIC "-//W3C//DTD SVG 20010904//EN"
 "http://www.w3.org/TR/2001/REC-SVG-20010904/DTD/svg10.dtd">
<svg version="1.0" xmlns="http://www.w3.org/2000/svg"
 width="316.000000pt" height="316.000000pt" viewBox="0 0 316.000000 316.000000"
 preserveAspectRatio="xMidYMid meet">
<metadata>
Created by potrace 1.14, written by Peter Selinger 2001-2017
</metadata>
<g transform="translate(0.000000,316.000000) scale(0.100000,-0.100000)"
fill="#000000" stroke="none">
<path d="M1537 2714 c-1 -1 -41 -4 -88 -7 -47 -4 -124 -18 -171 -32 -87 -25
-271 -107 -296 -132 -7 -7 -17 -13 -21 -13 -4 0 -16 -8 -27 -17 -10 -10 -41
-35 -67 -56 -64 -52 -139 -133 -187 -201 -37 -53 -38 -56 -17 -57 129 -4 1847
-3 1847 2 0 12 -98 134 -152 189 -83 85 -183 156 -293 209 -94 45 -200 85
-256 96 -50 10 -264 25 -272 19z"/>
<path d="M577 2052 c-9 -2 -17 -5 -17 -6 0 -2 -13 -39 -29 -83 -48 -132 -77
-322 -50 -324 8 0 506 -2 1108 -3 l1093 -1 -6 80 c-8 113 -65 322 -90 331 -13
5 -1985 11 -2009 6z"/>
<path d="M480 1470 c1 -62 81 -321 114 -366 12 -16 72 -18 984 -19 l972 -1 25
50 c26 54 72 189 81 240 3 17 9 49 14 71 5 22 7 41 5 43 -2 2 -497 5 -1099 6
l-1096 2 0 -26z"/>
<path d="M738 892 c23 -27 60 -66 85 -88 74 -67 119 -104 124 -104 3 0 34 -18
68 -39 34 -22 80 -47 101 -56 43 -19 175 -63 208 -70 108 -22 154 -27 236 -28
139 0 210 10 365 56 68 20 161 63 213 98 24 16 46 29 51 29 22 0 195 161 250
233 13 16 -30 17 -864 17 l-877 0 40 -48z"/>
</g>
</svg>
